<svg width="24" height="24" viewBox="0 0 24 24" fill="none" xmlns="http://www.w3.org/2000/svg">
<path fill-rule="evenodd" clip-rule="evenodd" d="M4 7.41423L6.70711 4.70712L5.29289 3.29291L2.29289 6.29291C2.10536 6.48044 2 6.7348 2 7.00001V18C2 19.1046 2.89543 20 4 20H9C10.1046 20 11 19.1046 11 18V16H13V18C13 19.1046 13.8954 20 15 20H20C21.1046 20 22 19.1046 22 18V7.00001C22 6.7348 21.8946 6.48044 21.7071 6.29291L18.7071 3.29291L17.2929 4.70712L20 7.41423V12H15C13.8954 12 13 12.8954 13 14H11C11 12.8954 10.1046 12 9 12H4V7.41423ZM20 14H15V18H20V14ZM4 14H9V18H4V14Z" fill="white"/>
</svg>
