<svg width="24" height="24" viewBox="0 0 24 24" fill="none" xmlns="http://www.w3.org/2000/svg">
<path d="M7 19C7 20.1046 6.10457 21 5 21C3.89543 21 3 20.1046 3 19C3 17.8954 3.89543 17 5 17C6.10457 17 7 17.8954 7 19Z" fill="white"/>
<path d="M14 21C14 19.5555 13.7155 18.1251 13.1627 16.7905C12.6099 15.4559 11.7996 14.2433 10.7782 13.2218C9.75673 12.2004 8.5441 11.3901 7.20952 10.8373C5.87494 10.2845 4.44454 10 3 10L3 12.0201C4.17925 12.0201 5.34696 12.2524 6.43645 12.7037C7.52594 13.155 8.51587 13.8164 9.34973 14.6503C10.1836 15.4841 10.845 16.4741 11.2963 17.5636C11.7476 18.653 11.9799 19.8207 11.9799 21H14Z" fill="white"/>
<path d="M20 21C20 18.7675 19.5603 16.5569 18.706 14.4944C17.8516 12.4318 16.5994 10.5578 15.0208 8.97918C13.4422 7.40059 11.5682 6.14838 9.50562 5.29405C7.44308 4.43972 5.23247 4 3 4L3 6.00478C4.9692 6.00478 6.91912 6.39265 8.73842 7.14623C10.5577 7.89981 12.2108 9.00435 13.6032 10.3968C14.9957 11.7892 16.1002 13.4423 16.8538 15.2616C17.6074 17.0809 17.9952 19.0308 17.9952 21H20Z" fill="white"/>
</svg>
